<svg width="24" height="29" viewBox="0 0 24 29" fill="none" xmlns="http://www.w3.org/2000/svg">
<path d="M6.032 25V24.088L9.128 23.728H9.656L12.776 24.088V25H6.032ZM8.192 25C8.224 24.2 8.24 23.392 8.24 22.576C8.256 21.76 8.264 20.928 8.264 20.08C8.264 19.216 8.264 18.368 8.264 17.536V16.384C8.264 15.552 8.264 14.72 8.264 13.888C8.264 13.04 8.256 12.2 8.24 11.368C8.24 10.536 8.224 9.72 8.192 8.92H10.568C10.552 9.704 10.536 10.512 10.52 11.344C10.504 12.176 10.496 13.016 10.496 13.864C10.496 14.696 10.496 15.536 10.496 16.384V17.296C10.496 18.192 10.496 19.08 10.496 19.96C10.496 20.84 10.504 21.696 10.52 22.528C10.536 23.36 10.552 24.184 10.568 25H8.192ZM9.368 17.344V16.264H14.84V17.344H9.368ZM14.528 19.816L14.12 17.176V16.48L14.528 13.984H15.56V19.816H14.528ZM6.032 9.832V8.92H9.416V10.192H9.128L6.032 9.832ZM16.736 13.168L16.016 9.376L16.856 10.048H9.368V8.92H17.84L18.008 13.168H16.736Z" fill="black"/>
<path d="M23.5 16.5C23.5 23.1469 18.3322 28.5 12 28.5C5.66777 28.5 0.5 23.1469 0.5 16.5C0.5 9.85315 5.66777 4.5 12 4.5C18.3322 4.5 23.5 9.85315 23.5 16.5Z" stroke="black"/>
</svg>
