<svg width="123" height="18" viewBox="0 0 123 18" fill="none" xmlns="http://www.w3.org/2000/svg">
<path d="M4.64 0.079999L9.344 0.223999L11.816 0.175999C11.864 0.415999 11.888 0.735999 11.888 1.136C11.888 1.536 11.824 1.824 11.696 2C11.584 2.176 11.384 2.264 11.096 2.264C10.808 2.264 10.192 2.224 9.248 2.144C8.32 2.064 7.632 2.024 7.184 2.024L6.32 2.072C6.256 2.68 5.872 4.624 5.168 7.904C6.384 7.792 7.4 7.736 8.216 7.736C9.032 7.736 9.664 7.8 10.112 7.928C10.08 8.6 9.936 9.176 9.68 9.656C8.992 9.512 8.176 9.44 7.232 9.44C6.288 9.44 5.488 9.488 4.832 9.584C4.24 12.48 3.944 14.68 3.944 16.184V16.592C3.368 16.912 2.152 17.072 0.296 17.072H0.0560001C0.0560001 15.984 0.424 13.72 1.16 10.28C1.912 6.84 2.368 4.368 2.528 2.864C2.528 2.608 2.448 2.304 2.288 1.952C2.128 1.584 1.96 1.288 1.784 1.064L1.544 0.727999L1.616 0.368C2.48 0.191999 3.488 0.0959988 4.64 0.079999ZM13.8847 17.288C12.7807 17.288 11.9167 16.904 11.2927 16.136C10.6687 15.352 10.3567 14.264 10.3567 12.872C10.3567 11.096 10.8287 9.568 11.7727 8.288C12.7327 7.008 14.0527 6.368 15.7327 6.368L16.5967 6.416C16.8687 6.272 17.1727 6.2 17.5087 6.2C18.7727 6.2 19.4047 7.392 19.4047 9.776C20.0607 9.744 20.7247 9.656 21.3967 9.512L21.7807 9.416L21.9247 10.352C21.3967 10.576 20.6847 10.776 19.7887 10.952L19.3087 11.048C19.0047 12.728 18.3887 14.192 17.4607 15.44C16.5327 16.672 15.3407 17.288 13.8847 17.288ZM15.1807 15.224C15.8527 15.224 16.4527 14.792 16.9807 13.928C17.5247 13.064 17.9007 12.152 18.1087 11.192C16.3967 11.192 15.5407 10.552 15.5407 9.272C15.5407 8.76 15.6447 8.28 15.8527 7.832L15.9727 7.592C15.9087 7.56 15.8287 7.544 15.7327 7.544C15.6367 7.544 15.5647 7.56 15.5167 7.592C15.1167 7.848 14.7407 8.448 14.3887 9.392C14.0367 10.336 13.8607 11.416 13.8607 12.632C13.8607 14.36 14.3007 15.224 15.1807 15.224ZM20.4969 17.072H20.3289C20.2969 16.944 20.2809 16.656 20.2809 16.208C20.2809 15.744 20.4969 14.512 20.9289 12.512C21.3609 10.512 21.5769 9.368 21.5769 9.08C21.5769 8.584 21.3529 8.04 20.9049 7.448L20.6889 7.16L20.7129 6.848C21.5769 6.608 22.9609 6.488 24.8649 6.488C25.0569 6.904 25.1529 7.488 25.1529 8.24C25.3289 7.952 25.6969 7.568 26.2569 7.088C26.8169 6.608 27.3929 6.368 27.9849 6.368C28.8489 6.368 29.2809 7.12 29.2809 8.624C29.2009 8.72 29.0889 8.848 28.9449 9.008C28.8169 9.152 28.5449 9.36 28.1289 9.632C27.7289 9.904 27.3369 10.072 26.9529 10.136C26.9369 10.136 26.8009 9.92 26.5449 9.488C26.2889 9.056 26.0969 8.84 25.9689 8.84C25.5689 8.984 25.2169 9.224 24.9129 9.56C24.1769 12.872 23.8089 15.016 23.8089 15.992C23.8089 16.344 23.8169 16.592 23.8329 16.736C23.2729 16.96 22.1609 17.072 20.4969 17.072ZM36.7398 6.656C36.7078 7.056 36.5718 7.52 36.3318 8.048C35.7238 7.984 35.1478 7.952 34.6038 7.952H34.1718C33.4358 11.52 33.0678 13.744 33.0678 14.624C33.0678 15.088 33.1638 15.32 33.3558 15.32C33.5638 15.32 34.0998 15.12 34.9638 14.72L35.3958 15.512C33.9718 16.696 32.6518 17.288 31.4358 17.288C30.8758 17.288 30.4118 17.112 30.0438 16.76C29.6918 16.408 29.5158 15.944 29.5158 15.368C29.5158 14.776 29.5798 14.112 29.7078 13.376C29.8518 12.64 30.0438 11.744 30.2838 10.688C30.5238 9.616 30.6998 8.752 30.8118 8.096C30.2198 8.144 29.7798 8.192 29.4918 8.24C29.4598 8.048 29.4438 7.792 29.4438 7.472C29.4438 7.136 29.4678 6.864 29.5158 6.656H31.0278C31.1558 5.792 31.2198 4.976 31.2198 4.208L31.1958 3.464V3.392C32.4438 2.96 33.6198 2.744 34.7238 2.744C34.7878 3.064 34.8198 3.464 34.8198 3.944C34.8198 4.424 34.6838 5.328 34.4118 6.656H36.7398ZM41.5083 7.856C41.5083 8.528 41.2923 9.688 40.8603 11.336C40.4283 12.968 40.2123 14.04 40.2123 14.552C40.2123 15.048 40.2843 15.296 40.4283 15.296C40.5243 15.296 40.8923 15.144 41.5323 14.84L41.8203 14.696L42.2283 15.536C42.0843 15.664 41.8923 15.824 41.6523 16.016C41.4123 16.208 40.9643 16.472 40.3083 16.808C39.6523 17.128 39.0443 17.288 38.4843 17.288C37.9243 17.288 37.4843 17.12 37.1643 16.784C36.8443 16.432 36.6843 15.968 36.6843 15.392C36.6843 14.8 36.8843 13.76 37.2843 12.272C37.6843 10.768 37.8843 9.792 37.8843 9.344C37.8843 8.672 37.6763 8.04 37.2603 7.448L37.0443 7.16L37.0683 6.848C37.9163 6.608 39.2923 6.488 41.1963 6.488C41.4043 6.728 41.5083 7.184 41.5083 7.856ZM38.7723 3.872C38.4523 3.552 38.2923 3.128 38.2923 2.6C38.2923 2.072 38.5083 1.608 38.9403 1.208C39.3883 0.807999 39.9003 0.607999 40.4763 0.607999C41.0523 0.607999 41.5003 0.767999 41.8203 1.088C42.1403 1.408 42.3003 1.832 42.3003 2.36C42.3003 2.872 42.0683 3.328 41.6043 3.728C41.1563 4.128 40.6523 4.328 40.0923 4.328C39.5323 4.328 39.0923 4.176 38.7723 3.872ZM43.7274 17.072H43.2714C43.2714 16.32 43.4954 14.88 43.9434 12.752C44.4074 10.624 44.6394 9.416 44.6394 9.128C44.6394 8.6 44.4154 8.04 43.9674 7.448L43.7514 7.16L43.7754 6.848C44.6394 6.608 46.0234 6.488 47.9274 6.488C48.1354 6.76 48.2474 7.256 48.2634 7.976C49.6554 6.904 50.8314 6.368 51.7914 6.368C52.3674 6.368 52.8234 6.568 53.1594 6.968C53.5114 7.368 53.6874 7.872 53.6874 8.48C53.6874 9.072 53.5034 10.104 53.1354 11.576C52.7674 13.048 52.5834 14.04 52.5834 14.552C52.5834 15.048 52.6474 15.296 52.7754 15.296C52.8714 15.296 53.2074 15.144 53.7834 14.84L54.0714 14.696L54.5034 15.536C54.3594 15.664 54.1674 15.824 53.9274 16.016C53.6874 16.208 53.2394 16.472 52.5834 16.808C51.9434 17.128 51.3674 17.288 50.8554 17.288C49.6874 17.288 49.1034 16.624 49.1034 15.296C49.1034 14.736 49.2794 13.704 49.6314 12.2C49.9994 10.696 50.1834 9.728 50.1834 9.296C50.1834 8.864 50.0474 8.648 49.7754 8.648C49.3114 8.648 48.7434 8.848 48.0714 9.248C48.0234 9.52 47.8634 10.24 47.5914 11.408C47.0314 13.92 46.7514 15.696 46.7514 16.736C46.1914 16.96 45.1834 17.072 43.7274 17.072ZM60.2349 7.856C60.2349 8.528 60.0189 9.688 59.5869 11.336C59.1549 12.968 58.9389 14.04 58.9389 14.552C58.9389 15.048 59.0109 15.296 59.1549 15.296C59.2509 15.296 59.6189 15.144 60.2589 14.84L60.5469 14.696L60.9549 15.536C60.8109 15.664 60.6189 15.824 60.3789 16.016C60.1389 16.208 59.6909 16.472 59.0349 16.808C58.3789 17.128 57.7709 17.288 57.2109 17.288C56.6509 17.288 56.2109 17.12 55.8909 16.784C55.5709 16.432 55.4109 15.968 55.4109 15.392C55.4109 14.8 55.6109 13.76 56.0109 12.272C56.4109 10.768 56.6109 9.792 56.6109 9.344C56.6109 8.672 56.4029 8.04 55.9869 7.448L55.7709 7.16L55.7949 6.848C56.6429 6.608 58.0189 6.488 59.9229 6.488C60.1309 6.728 60.2349 7.184 60.2349 7.856ZM57.4989 3.872C57.1789 3.552 57.0189 3.128 57.0189 2.6C57.0189 2.072 57.2349 1.608 57.6669 1.208C58.1149 0.807999 58.6269 0.607999 59.2029 0.607999C59.7789 0.607999 60.2269 0.767999 60.5469 1.088C60.8669 1.408 61.0269 1.832 61.0269 2.36C61.0269 2.872 60.7949 3.328 60.3309 3.728C59.8829 4.128 59.3789 4.328 58.8189 4.328C58.2589 4.328 57.8189 4.176 57.4989 3.872ZM62.4539 17.072H61.9979C61.9979 16.32 62.2219 14.88 62.6699 12.752C63.1339 10.624 63.3659 9.416 63.3659 9.128C63.3659 8.6 63.1419 8.04 62.6939 7.448L62.4779 7.16L62.5019 6.848C63.3659 6.608 64.7499 6.488 66.6539 6.488C66.8779 6.792 66.9899 7.288 66.9899 7.976C68.4299 6.904 69.5739 6.368 70.4219 6.368C71.4939 6.368 72.1259 6.92 72.3179 8.024C72.7499 7.672 73.3099 7.312 73.9979 6.944C74.7019 6.56 75.3259 6.368 75.8699 6.368C76.4299 6.368 76.8939 6.552 77.2619 6.92C77.6299 7.272 77.8139 7.768 77.8139 8.408C77.8139 9.048 77.6379 10.104 77.2859 11.576C76.9339 13.048 76.7579 14.04 76.7579 14.552C76.7579 15.048 76.8299 15.296 76.9739 15.296C77.0699 15.296 77.3979 15.144 77.9579 14.84L78.2219 14.696L78.6539 15.536C78.2379 15.952 77.6699 16.352 76.9499 16.736C76.2459 17.104 75.6219 17.288 75.0779 17.288C73.8779 17.288 73.2779 16.608 73.2779 15.248C73.2779 14.752 73.4459 13.76 73.7819 12.272C74.1339 10.768 74.3099 9.792 74.3099 9.344C74.3099 8.88 74.1739 8.648 73.9019 8.648C73.4379 8.648 72.9099 8.824 72.3179 9.176C72.2859 9.496 72.0619 10.584 71.6459 12.44C71.2459 14.296 71.0459 15.736 71.0459 16.76C70.5819 16.968 69.4939 17.072 67.7819 17.072C67.7499 16.896 67.7339 16.472 67.7339 15.8C67.7339 15.128 67.9179 13.984 68.2859 12.368C68.6699 10.752 68.8619 9.728 68.8619 9.296C68.8619 8.864 68.7099 8.648 68.4059 8.648C67.9259 8.648 67.3979 8.84 66.8219 9.224C66.7899 9.368 66.6299 10.072 66.3419 11.336C65.7659 13.864 65.4779 15.664 65.4779 16.736C64.9179 16.96 63.9099 17.072 62.4539 17.072ZM82.7909 17.288C81.6869 17.288 80.8229 16.904 80.1989 16.136C79.5749 15.352 79.2629 14.264 79.2629 12.872C79.2629 11.096 79.7349 9.568 80.6789 8.288C81.6389 7.008 82.9589 6.368 84.6389 6.368L85.5029 6.416C85.7749 6.272 86.0789 6.2 86.4149 6.2C87.6789 6.2 88.3109 7.392 88.3109 9.776C88.9669 9.744 89.6309 9.656 90.3029 9.512L90.6869 9.416L90.8309 10.352C90.3029 10.576 89.5909 10.776 88.6949 10.952L88.2149 11.048C87.9109 12.728 87.2949 14.192 86.3669 15.44C85.4389 16.672 84.2469 17.288 82.7909 17.288ZM84.0869 15.224C84.7589 15.224 85.3589 14.792 85.8869 13.928C86.4309 13.064 86.8069 12.152 87.0149 11.192C85.3029 11.192 84.4469 10.552 84.4469 9.272C84.4469 8.76 84.5509 8.28 84.7589 7.832L84.8789 7.592C84.8149 7.56 84.7349 7.544 84.6389 7.544C84.5429 7.544 84.4709 7.56 84.4229 7.592C84.0229 7.848 83.6469 8.448 83.2949 9.392C82.9429 10.336 82.7669 11.416 82.7669 12.632C82.7669 14.36 83.2069 15.224 84.0869 15.224ZM88.7909 2.216C88.7909 2.664 88.5029 3.024 87.9269 3.296C87.1429 3.664 85.1829 4.208 82.0469 4.928L81.6149 3.968C83.1189 3.184 84.4789 2.384 85.6949 1.568C86.9109 0.752 87.6629 0.256 87.9509 0.079999C88.1109 0.303999 88.2869 0.655999 88.4789 1.136C88.6869 1.616 88.7909 1.976 88.7909 2.216ZM91.5793 6.368C92.2833 6.368 92.8033 6.512 93.1393 6.8C93.4913 7.088 93.6673 7.68 93.6673 8.576C93.6673 9.056 93.5233 10.04 93.2353 11.528C92.9473 13 92.8033 13.896 92.8033 14.216C92.8033 14.856 92.9313 15.176 93.1873 15.176C93.7953 15.176 94.4593 14.728 95.1793 13.832C95.9153 12.92 96.2993 12.16 96.3313 11.552L94.6992 9.728C94.7633 9.04 94.9313 8.416 95.2033 7.856C95.4753 7.296 95.7313 6.904 95.9713 6.68L96.3073 6.368C96.9953 6.368 97.5153 6.552 97.8673 6.92C98.2193 7.288 98.3953 7.72 98.3953 8.216C98.3953 9.48 98.0833 10.816 97.4593 12.224C96.8353 13.632 96.0033 14.832 94.9633 15.824C93.9233 16.8 92.8673 17.288 91.7953 17.288C91.1233 17.288 90.6033 17.08 90.2353 16.664C89.8833 16.248 89.7073 15.704 89.7073 15.032C89.7073 14.344 89.7553 13.424 89.8513 12.272C89.9633 11.12 90.0193 9.976 90.0193 8.84C90.0193 8.584 89.9233 8.28 89.7313 7.928C89.5553 7.576 89.3713 7.296 89.1793 7.088L89.2513 6.8C90.1153 6.512 90.8913 6.368 91.5793 6.368ZM98.6006 12.848C98.6006 10.848 99.2006 9.272 100.401 8.12C101.617 6.952 102.993 6.368 104.529 6.368C105.473 6.368 106.249 6.6 106.857 7.064C107.465 7.528 107.769 8.152 107.769 8.936C107.769 9.704 107.569 10.352 107.169 10.88C106.785 11.408 106.313 11.816 105.753 12.104C104.617 12.664 103.577 13.016 102.633 13.16L102.057 13.232C102.169 14.736 102.785 15.488 103.905 15.488C104.289 15.488 104.697 15.392 105.129 15.2C105.561 15.008 105.897 14.816 106.137 14.624L106.497 14.336L107.073 15.104C106.945 15.28 106.689 15.512 106.305 15.8C105.921 16.088 105.561 16.328 105.225 16.52C104.297 17.032 103.281 17.288 102.177 17.288C101.073 17.288 100.201 16.896 99.5606 16.112C98.9206 15.328 98.6006 14.24 98.6006 12.848ZM102.033 12.056C102.849 11.912 103.497 11.568 103.977 11.024C104.457 10.48 104.697 9.776 104.697 8.912C104.697 8.048 104.441 7.616 103.929 7.616C103.321 7.616 102.849 8.136 102.513 9.176C102.193 10.2 102.033 11.16 102.033 12.056ZM113.251 7.856C113.251 8.528 113.035 9.688 112.603 11.336C112.171 12.968 111.955 14.04 111.955 14.552C111.955 15.048 112.027 15.296 112.171 15.296C112.267 15.296 112.635 15.144 113.275 14.84L113.562 14.696L113.971 15.536C113.827 15.664 113.635 15.824 113.395 16.016C113.155 16.208 112.707 16.472 112.051 16.808C111.395 17.128 110.787 17.288 110.227 17.288C109.667 17.288 109.227 17.12 108.907 16.784C108.587 16.432 108.427 15.968 108.427 15.392C108.427 14.8 108.627 13.76 109.027 12.272C109.427 10.768 109.627 9.792 109.627 9.344C109.627 8.672 109.419 8.04 109.003 7.448L108.787 7.16L108.811 6.848C109.659 6.608 111.035 6.488 112.939 6.488C113.147 6.728 113.251 7.184 113.251 7.856ZM110.515 3.872C110.195 3.552 110.035 3.128 110.035 2.6C110.035 2.072 110.251 1.608 110.683 1.208C111.131 0.807999 111.643 0.607999 112.219 0.607999C112.795 0.607999 113.243 0.767999 113.562 1.088C113.883 1.408 114.043 1.832 114.043 2.36C114.043 2.872 113.811 3.328 113.347 3.728C112.899 4.128 112.395 4.328 111.835 4.328C111.275 4.328 110.835 4.176 110.515 3.872ZM122.238 13.856C122.238 14.864 121.79 15.688 120.894 16.328C120.014 16.968 119.006 17.288 117.87 17.288C116.734 17.288 115.83 17.048 115.158 16.568C114.502 16.088 114.174 15.664 114.174 15.296C114.174 15.072 114.454 14.712 115.014 14.216C115.574 13.704 116.046 13.392 116.43 13.28C117.23 13.872 117.886 14.808 118.398 16.088C118.99 16.04 119.286 15.76 119.286 15.248C119.286 14.512 118.638 13.472 117.342 12.128C116.046 10.768 115.398 9.688 115.398 8.888C115.398 8.088 115.758 7.472 116.478 7.04C117.198 6.592 118.062 6.368 119.07 6.368C120.094 6.368 120.862 6.552 121.374 6.92C121.886 7.272 122.142 7.76 122.142 8.384C122.142 8.992 121.654 9.84 120.678 10.928C120.79 11.04 120.934 11.192 121.11 11.384C121.286 11.56 121.518 11.904 121.806 12.416C122.094 12.928 122.238 13.408 122.238 13.856ZM119.934 10.088C120.606 9.512 120.942 8.944 120.942 8.384C120.942 7.824 120.558 7.544 119.79 7.544C119.422 7.544 119.118 7.624 118.878 7.784C118.638 7.928 118.518 8.096 118.518 8.288C118.518 8.64 118.87 9.136 119.574 9.776L119.934 10.088Z" fill="#119DA4"/>
</svg>
